# xmcd
#
# Track frame offsets: 
#        150
#        19873
#        38113
#        54116
#        72885
#        88779
#        111414
#        127422
#        143140
#        156070
#        173605
#
# Disc length: 2372 seconds
#
# Revision: 0
# Processed by: cddbd v1.5.2PL0 Copyright (c) Steve Scherf et al.
# Submitted via: ExactAudioCopyFreeDBPlugin 1.0
#
DISCID=9309420b
DTITLE=Syreeta - Syreeta
DYEAR=1980
DGENRE=Soul
TTITLE0=Blame It On The Sun
TTITLE1=Let Me Be The One
TTITLE2=You Bring Out The Love In Me
TTITLE3=Please Stay
TTITLE4=He's Gone
TTITLE5=Love Fire
TTITLE6=Here's My Love
TTITLE7=Signed, Sealed, Delivered (I'm Yours)
TTITLE8=Dance For Me Children
TTITLE9=One More Time For Love
TTITLE10=One More Time For Love (Reprise)
EXTD=
EXTT0=
EXTT1=
EXTT2=
EXTT3=
EXTT4=
EXTT5=
EXTT6=
EXTT7=
EXTT8=
EXTT9=
EXTT10=
PLAYORDER=
